<?xml version="1.0" encoding="utf-8" standalone="no"?>
<!DOCTYPE svg PUBLIC "-//W3C//DTD SVG 1.1//EN"
  "http://www.w3.org/Graphics/SVG/1.1/DTD/svg11.dtd">
<svg xmlns:xlink="http://www.w3.org/1999/xlink" width="787.797422pt" height="393.589969pt" viewBox="0 0 787.797422 393.589969" xmlns="http://www.w3.org/2000/svg" version="1.1">
 <metadata>
  <rdf:RDF xmlns:dc="http://purl.org/dc/elements/1.1/" xmlns:cc="http://creativecommons.org/ns#" xmlns:rdf="http://www.w3.org/1999/02/22-rdf-syntax-ns#">
   <cc:Work>
    <dc:type rdf:resource="http://purl.org/dc/dcmitype/StillImage"/>
    <dc:date>2026-07-14T16:02:17.704319</dc:date>
    <dc:format>image/svg+xml</dc:format>
    <dc:creator>
     <cc:Agent>
      <dc:title>Matplotlib v3.11.0, https://matplotlib.org/</dc:title>
     </cc:Agent>
    </dc:creator>
   </cc:Work>
  </rdf:RDF>
 </metadata>
 <defs>
  <style type="text/css">*{stroke-linejoin: round; stroke-linecap: butt}</style>
 </defs>
 <g id="figure_1">
  <g id="patch_1">
   <path d="M 0 393.589969 
L 787.797422 393.589969 
L 787.797422 0 
L 0 0 
z
" style="fill: #ffffff"/>
  </g>
  <g id="axes_1">
   <g id="patch_2">
    <path d="M 131.4 190.285009 
L 200.034 190.285009 
L 200.034 119.543569 
L 131.4 119.543569 
z
" clip-path="url(#p5ebe43f94c)" style="fill: #f3f6fa; stroke: #2f5d8c; stroke-width: 1.2; stroke-linejoin: miter"/>
   </g>
   <g id="patch_3">
    <path d="M 202.032501 154.914289 
Q 208.404528 154.914289 213.658522 154.914289 
" clip-path="url(#p5ebe43f94c)" style="fill: none; stroke: #6b7280; stroke-linecap: round"/>
    <path d="M 208.858522 152.514289 
L 213.658522 154.914289 
L 208.858522 157.314289 
" clip-path="url(#p5ebe43f94c)" style="fill: none; stroke: #6b7280; stroke-linecap: round"/>
   </g>
   <g id="patch_4">
    <path d="M 216.774 190.285009 
L 285.408 190.285009 
L 285.408 119.543569 
L 216.774 119.543569 
z
" clip-path="url(#p5ebe43f94c)" style="fill: #f3f6fa; stroke: #2f5d8c; stroke-width: 1.2; stroke-linejoin: miter"/>
   </g>
   <g id="patch_5">
    <path d="M 287.406501 154.914289 
Q 293.778528 154.914289 299.032522 154.914289 
" clip-path="url(#p5ebe43f94c)" style="fill: none; stroke: #6b7280; stroke-linecap: round"/>
    <path d="M 294.232522 152.514289 
L 299.032522 154.914289 
L 294.232522 157.314289 
" clip-path="url(#p5ebe43f94c)" style="fill: none; stroke: #6b7280; stroke-linecap: round"/>
   </g>
   <g id="patch_6">
    <path d="M 302.148 190.285009 
L 370.782 190.285009 
L 370.782 119.543569 
L 302.148 119.543569 
z
" clip-path="url(#p5ebe43f94c)" style="fill: #f3f6fa; stroke: #2f5d8c; stroke-width: 1.2; stroke-linejoin: miter"/>
   </g>
   <g id="patch_7">
    <path d="M 372.780501 154.914289 
Q 379.152528 154.914289 384.406522 154.914289 
" clip-path="url(#p5ebe43f94c)" style="fill: none; stroke: #6b7280; stroke-linecap: round"/>
    <path d="M 379.606522 152.514289 
L 384.406522 154.914289 
L 379.606522 157.314289 
" clip-path="url(#p5ebe43f94c)" style="fill: none; stroke: #6b7280; stroke-linecap: round"/>
   </g>
   <g id="patch_8">
    <path d="M 387.522 190.285009 
L 456.156 190.285009 
L 456.156 119.543569 
L 387.522 119.543569 
z
" clip-path="url(#p5ebe43f94c)" style="fill: #f3f6fa; stroke: #2f5d8c; stroke-width: 1.2; stroke-linejoin: miter"/>
   </g>
   <g id="patch_9">
    <path d="M 458.154501 154.914289 
Q 464.526528 154.914289 469.780522 154.914289 
" clip-path="url(#p5ebe43f94c)" style="fill: none; stroke: #6b7280; stroke-linecap: round"/>
    <path d="M 464.980522 152.514289 
L 469.780522 154.914289 
L 464.980522 157.314289 
" clip-path="url(#p5ebe43f94c)" style="fill: none; stroke: #6b7280; stroke-linecap: round"/>
   </g>
   <g id="patch_10">
    <path d="M 472.896 190.285009 
L 541.53 190.285009 
L 541.53 119.543569 
L 472.896 119.543569 
z
" clip-path="url(#p5ebe43f94c)" style="fill: #f3f6fa; stroke: #2f5d8c; stroke-width: 1.2; stroke-linejoin: miter"/>
   </g>
   <g id="patch_11">
    <path d="M 543.528501 154.914289 
Q 549.900528 154.914289 555.154522 154.914289 
" clip-path="url(#p5ebe43f94c)" style="fill: none; stroke: #6b7280; stroke-linecap: round"/>
    <path d="M 550.354522 152.514289 
L 555.154522 154.914289 
L 550.354522 157.314289 
" clip-path="url(#p5ebe43f94c)" style="fill: none; stroke: #6b7280; stroke-linecap: round"/>
   </g>
   <g id="patch_12">
    <path d="M 558.27 190.285009 
L 626.904 190.285009 
L 626.904 119.543569 
L 558.27 119.543569 
z
" clip-path="url(#p5ebe43f94c)" style="fill: #f3f6fa; stroke: #2f5d8c; stroke-width: 1.2; stroke-linejoin: miter"/>
   </g>
   <g id="patch_13">
    <path d="M 628.902501 154.914289 
Q 635.274528 154.914289 640.528522 154.914289 
" clip-path="url(#p5ebe43f94c)" style="fill: none; stroke: #6b7280; stroke-linecap: round"/>
    <path d="M 635.728522 152.514289 
L 640.528522 154.914289 
L 635.728522 157.314289 
" clip-path="url(#p5ebe43f94c)" style="fill: none; stroke: #6b7280; stroke-linecap: round"/>
   </g>
   <g id="patch_14">
    <path d="M 643.644 190.285009 
L 712.278 190.285009 
L 712.278 119.543569 
L 643.644 119.543569 
z
" clip-path="url(#p5ebe43f94c)" style="fill: #f3f6fa; stroke: #2f5d8c; stroke-width: 1.2; stroke-linejoin: miter"/>
   </g>
   <g id="patch_15">
    <path d="M 714.276501 154.914289 
Q 720.648528 154.914289 725.902522 154.914289 
" clip-path="url(#p5ebe43f94c)" style="fill: none; stroke: #6b7280; stroke-linecap: round"/>
    <path d="M 721.102522 152.514289 
L 725.902522 154.914289 
L 721.102522 157.314289 
" clip-path="url(#p5ebe43f94c)" style="fill: none; stroke: #6b7280; stroke-linecap: round"/>
   </g>
   <g id="patch_16">
    <path d="M 729.018 190.285009 
L 797.652 190.285009 
L 797.652 119.543569 
L 729.018 119.543569 
z
" clip-path="url(#p5ebe43f94c)" style="fill: #f3f6fa; stroke: #2f5d8c; stroke-width: 1.2; stroke-linejoin: miter"/>
   </g>
   <g id="text_1">
    <text style="font-size: 9px; font-family: 'DejaVu Sans'; text-anchor: middle" x="165.717" y="157.252179" transform="rotate(-0 165.717 157.252179)">Corpus</text>
   </g>
   <g id="text_2">
    <text style="font-size: 9px; font-family: 'DejaVu Sans'; text-anchor: middle" x="251.091" y="157.252531" transform="rotate(-0 251.091 157.252531)">Chunks</text>
   </g>
   <g id="text_3">
    <text style="font-size: 9px; font-family: 'DejaVu Sans'; text-anchor: middle" x="336.465" y="157.252531" transform="rotate(-0 336.465 157.252531)">Index</text>
   </g>
   <g id="text_4">
    <text style="font-size: 9px; font-family: 'DejaVu Sans'" transform="translate(400.222828 151.8513)">Retrieved</text>
    <text style="font-size: 9px; font-family: 'DejaVu Sans'" transform="translate(401.435719 162.653761)">evidence</text>
   </g>
   <g id="text_5">
    <text style="font-size: 9px; font-family: 'DejaVu Sans'" transform="translate(480.743156 151.8513)">Answer and</text>
    <text style="font-size: 9px; font-family: 'DejaVu Sans'" transform="translate(488.002922 162.653761)">citations</text>
   </g>
   <g id="text_6">
    <text style="font-size: 9px; font-family: 'DejaVu Sans'; text-anchor: middle" x="592.587" y="157.252531" transform="rotate(-0 592.587 157.252531)">Metrics</text>
   </g>
   <g id="text_7">
    <text style="font-size: 9px; font-family: 'DejaVu Sans'; text-anchor: middle" x="677.961" y="157.252531" transform="rotate(-0 677.961 157.252531)">Human review</text>
   </g>
   <g id="text_8">
    <text style="font-size: 9px; font-family: 'DejaVu Sans'; text-anchor: middle" x="763.335" y="157.252179" transform="rotate(-0 763.335 157.252179)">Reports</text>
   </g>
   <g id="text_9">
    <text style="font-weight: 700; font-size: 13px; font-family: 'DejaVu Sans'; text-anchor: start" x="97.92" y="17.077969" transform="rotate(-0 97.92 17.077969)">Figure 2. Evaluation lifecycle and data flow</text>
   </g>
  </g>
  <g id="text_10">
   <text style="font-size: 9px; font-family: 'DejaVu Sans'; text-anchor: start; fill: #1f2937" x="7.2" y="384.227859" transform="rotate(-0 7.2 384.227859)">A question moves from source evidence through retrieval, answer generation, scoring and review.</text>
  </g>
 </g>
 <defs>
  <clipPath id="p5ebe43f94c">
   <rect x="97.92" y="23.077969" width="669.6" height="321.552"/>
  </clipPath>
 </defs>
</svg>
